<svg width="172" height="44" viewBox="0 0 172 44" fill="none" xmlns="http://www.w3.org/2000/svg">
<g clip-path="url(#clip0_47_10627)">
<path d="M135.099 31.6791L141.058 38.5097H137.187L132.579 33.2447V38.5097H129.37V25.7726H132.579V30.3952L137.11 25.7726H140.904L135.099 31.6791ZM39.0998 29.2143C41.4416 29.2143 42.5113 28.0843 42.5113 26.3895C42.5113 24.6946 41.4416 23.5647 39.0998 23.5647H34.4659V29.2143H39.0998ZM39.2019 20.5339C43.225 20.5339 45.8731 22.6134 45.8731 26.3886C45.8731 30.1638 43.225 32.2441 39.2019 32.2441H34.4659V38.5097H31.105V20.5339H39.2019ZM53.4587 35.8389C55.3424 35.8389 57.0996 34.4784 57.0996 32.1411C57.0996 29.8039 55.3424 28.4434 53.4587 28.4434C51.5749 28.4434 49.8177 29.8047 49.8177 32.1411C49.8177 34.4775 51.5749 35.8389 53.4587 35.8389ZM53.4587 25.4135C56.9216 25.4135 60.3585 27.6734 60.3585 32.142C60.3585 36.6107 56.9216 38.8696 53.4587 38.8696C49.9957 38.8696 46.5589 36.6107 46.5589 32.142C46.5589 27.6734 49.9957 25.4135 53.4587 25.4135ZM68.5496 35.8398C66.6143 35.8398 65.1887 34.4274 65.1887 32.142C65.1887 29.8822 66.665 28.4443 68.5496 28.4443C69.6952 28.4443 70.6881 28.9837 71.4777 30.1902L74.2279 28.5983C73.3109 26.6209 71.325 25.4144 68.5758 25.4144C64.9854 25.4144 61.9307 28.0852 61.9307 32.142C61.9307 36.1997 64.8336 38.8705 68.5758 38.8705C71.2744 38.8705 73.0823 37.6376 74.3553 35.4552L71.7072 33.9918C70.9429 35.0689 70.1279 35.8398 68.5496 35.8398ZM102.708 32.9895C102.556 34.9413 102.173 35.3778 101.511 35.3778C101.059 35.3778 100.846 35.3276 100.537 35.2458L100.552 38.5414C100.552 38.5414 100.951 38.6646 101.689 38.6646C104.413 38.6646 105.432 36.8923 105.687 33.1179L105.992 28.6748H109.607V38.4851H112.815V25.7726H103.242L102.708 32.9895ZM96.7909 30.4463C96.4856 28.8543 95.2894 27.8784 93.5068 27.8784C91.8264 27.8784 90.5534 29.0083 90.0944 30.4463H96.7909ZM93.608 25.4135C97.2237 25.4135 99.7697 28.0588 99.7697 31.7821V32.912H90.043C90.2463 34.8639 91.6213 36.0959 93.5059 36.0959C95.2117 36.0959 95.9245 35.3514 96.7142 34.3499L99.2601 35.6339C97.9872 37.8163 96.2299 38.8696 93.4545 38.8696C89.9409 38.8696 86.9621 36.1733 86.9621 32.1411C86.963 28.1099 89.9426 25.4135 93.608 25.4135ZM124.44 30.4463C124.134 28.8543 122.937 27.8784 121.156 27.8784C119.475 27.8784 118.202 29.0083 117.743 30.4463H124.44ZM121.258 25.4135C124.874 25.4135 127.42 28.0588 127.42 31.7821V32.912H117.693C117.896 34.8639 119.271 36.0959 121.156 36.0959C122.862 36.0959 123.574 35.3514 124.364 34.3499L126.91 35.6339C125.637 37.8163 123.88 38.8696 121.104 38.8696C117.591 38.8696 114.612 36.1733 114.612 32.1411C114.612 28.1099 117.591 25.4135 121.258 25.4135ZM75.3525 28.5974H79.1209V38.5097H82.3291V28.5974H86.0975V25.7726H75.3525V28.5974ZM147.427 35.8398C149.311 35.8398 151.068 34.4793 151.068 32.142C151.068 29.8047 149.311 28.4443 147.427 28.4443C145.543 28.4443 143.786 29.8056 143.786 32.142C143.786 34.4784 145.542 35.8398 147.427 35.8398ZM147.427 25.4135C150.89 25.4135 154.327 27.6734 154.327 32.142C154.327 36.6107 150.89 38.8705 147.427 38.8705C143.964 38.8705 140.527 36.6107 140.527 32.142C140.527 27.6734 143.964 25.4135 147.427 25.4135ZM167.092 25.7708L163.609 34.6914L160.127 25.7708H155.934V38.4851H158.983V30.4357L162.363 38.4851H164.854L168.234 30.4357V38.4851H171.283V25.7708H167.092Z" fill="#101828"/>
<path d="M20.827 44H3.02692C1.74084 44 0.984375 42.841 0.984375 41.8282C0.984375 41.2289 1.22519 40.6859 1.6152 40.2926L9.38315 32.4579L20.827 44Z" fill="#FF4F12"/>
<path d="M3.02718 44C1.68264 44 0.0030632 42.9158 0.0030632 40.7607V16.625C0.0030632 13.3637 -0.161841 11.0695 2.14769 8.74016L10.8126 0L26.1783 15.5223L1.61546 40.2926C1.22545 40.6859 0.984636 41.228 0.984636 41.8282C0.984636 42.841 1.7411 44 3.02718 44Z" fill="#7700FF"/>
</g>
<defs>
<clipPath id="clip0_47_10627">
<rect width="171.286" height="44" fill="white"/>
</clipPath>
</defs>
</svg>
