<svg width="218" height="56" viewBox="0 0 218 56" fill="none" xmlns="http://www.w3.org/2000/svg">
<path d="M171.945 40.3188L179.528 49.0123H174.602L168.736 42.3113V49.0123H164.653V32.8014H168.736V38.6848L174.504 32.8014H179.332L171.945 40.3188ZM49.7633 37.1817C52.7438 37.1817 54.1052 35.7436 54.1052 33.5865C54.1052 31.4294 52.7438 29.9913 49.7633 29.9913H43.8656V37.1817H49.7633ZM49.8932 26.134C55.0136 26.134 58.3839 28.7806 58.3839 33.5854C58.3839 38.3902 55.0136 41.0379 49.8932 41.0379H43.8656V49.0123H39.5881V26.134H49.8932ZM68.0382 45.6131C70.4357 45.6131 72.6722 43.8816 72.6722 40.9068C72.6722 37.9321 70.4357 36.2006 68.0382 36.2006C65.6407 36.2006 63.4043 37.9332 63.4043 40.9068C63.4043 43.8804 65.6407 45.6131 68.0382 45.6131ZM68.0382 32.3444C72.4457 32.3444 76.8198 35.2206 76.8198 40.908C76.8198 46.5953 72.4457 49.4704 68.0382 49.4704C63.6308 49.4704 59.2567 46.5953 59.2567 40.908C59.2567 35.2206 63.6308 32.3444 68.0382 32.3444ZM87.2449 45.6142C84.7818 45.6142 82.9673 43.8166 82.9673 40.908C82.9673 38.0318 84.8462 36.2017 87.2449 36.2017C88.7029 36.2017 89.9666 36.8883 90.9716 38.4238L94.4718 36.3977C93.3047 33.8811 90.7772 32.3456 87.2782 32.3456C82.7086 32.3456 78.8209 35.7448 78.8209 40.908C78.8209 46.0723 82.5154 49.4715 87.2782 49.4715C90.7128 49.4715 93.0137 47.9024 94.6339 45.1248L91.2636 43.2622C90.2909 44.6331 89.2537 45.6142 87.2449 45.6142ZM130.72 41.9865C130.525 44.4707 130.038 45.0262 129.196 45.0262C128.621 45.0262 128.35 44.9624 127.956 44.8582L127.976 49.0526C127.976 49.0526 128.483 49.2094 129.423 49.2094C132.889 49.2094 134.186 46.9537 134.511 42.15L134.899 36.4952H139.5V48.9809H143.583V32.8014H131.399L130.72 41.9865ZM123.188 38.7497C122.8 36.7236 121.277 35.4816 119.009 35.4816C116.87 35.4816 115.25 36.9196 114.666 38.7497H123.188ZM119.137 32.3444C123.739 32.3444 126.98 35.7112 126.98 40.4499V41.888H114.6C114.859 44.3721 116.609 45.9401 119.007 45.9401C121.178 45.9401 122.086 44.9926 123.091 43.718L126.331 45.3521C124.711 48.1297 122.474 49.4704 118.942 49.4704C114.47 49.4704 110.679 46.0387 110.679 40.9068C110.68 35.7761 114.472 32.3444 119.137 32.3444ZM158.378 38.7497C157.989 36.7236 156.466 35.4816 154.198 35.4816C152.059 35.4816 150.439 36.9196 149.855 38.7497H158.378ZM154.328 32.3444C158.93 32.3444 162.17 35.7112 162.17 40.4499V41.888H149.791C150.049 44.3721 151.8 45.9401 154.198 45.9401C156.369 45.9401 157.276 44.9926 158.281 43.718L161.522 45.3521C159.902 48.1297 157.665 49.4704 154.133 49.4704C149.661 49.4704 145.87 46.0387 145.87 40.9068C145.87 35.7761 149.661 32.3444 154.328 32.3444ZM95.9032 36.3966H100.699V49.0123H104.782V36.3966H109.579V32.8014H95.9032V36.3966ZM187.634 45.6142C190.032 45.6142 192.268 43.8827 192.268 40.908C192.268 37.9332 190.032 36.2017 187.634 36.2017C185.237 36.2017 183 37.9344 183 40.908C183 43.8816 185.236 45.6142 187.634 45.6142ZM187.634 32.3444C192.042 32.3444 196.416 35.2206 196.416 40.908C196.416 46.5953 192.042 49.4715 187.634 49.4715C183.227 49.4715 178.853 46.5953 178.853 40.908C178.853 35.2206 183.227 32.3444 187.634 32.3444ZM212.662 32.7992L208.23 44.1526L203.798 32.7992H198.461V48.9809H202.342V38.7363L206.644 48.9809H209.814L214.116 38.7363V48.9809H217.997V32.7992H212.662Z" fill="#101828"/>
<path d="M26.5068 56H3.85221C2.21538 56 1.25261 54.5249 1.25261 53.2358C1.25261 52.4731 1.5591 51.7821 2.05548 51.2814L11.942 41.3101L26.5068 56Z" fill="#FF4F12"/>
<path d="M3.85264 56C2.14141 56 0.00376545 54.6202 0.00376545 51.8773V21.159C0.00376545 17.0083 -0.206112 14.0885 2.73329 11.1238L13.7613 0L33.3177 19.7557L2.05591 51.2814C1.55953 51.7821 1.25304 52.472 1.25304 53.2358C1.25304 54.525 2.21581 56 3.85264 56Z" fill="#7700FF"/>
</svg>
