<svg width="141" height="36" viewBox="0 0 141 36" fill="none" xmlns="http://www.w3.org/2000/svg">
<g clip-path="url(#clip0_47_10656)">
<path d="M110.536 25.9193L115.411 31.5079H112.244L108.474 27.2002V31.5079H105.849V21.0866H108.474V24.8688L112.181 21.0866H115.285L110.536 25.9193ZM31.9909 23.9026C33.9069 23.9026 34.7821 22.9781 34.7821 21.5914C34.7821 20.2046 33.9069 19.2802 31.9909 19.2802H28.1995V23.9026H31.9909ZM32.0744 16.8005C35.3661 16.8005 37.5327 18.5018 37.5327 21.5906C37.5327 24.6794 35.3661 26.3815 32.0744 26.3815H28.1995V31.5079H25.4497V16.8005H32.0744ZM43.7391 29.3227C45.2803 29.3227 46.7181 28.2096 46.7181 26.2973C46.7181 24.385 45.2803 23.2718 43.7391 23.2718C42.1978 23.2718 40.7601 24.3857 40.7601 26.2973C40.7601 28.2089 42.1978 29.3227 43.7391 29.3227ZM43.7391 20.7929C46.5724 20.7929 49.3844 22.6418 49.3844 26.298C49.3844 29.9542 46.5724 31.8024 43.7391 31.8024C40.9057 31.8024 38.0938 29.9542 38.0938 26.298C38.0938 22.6418 40.9057 20.7929 43.7391 20.7929ZM56.0862 29.3234C54.5028 29.3234 53.3364 28.1678 53.3364 26.298C53.3364 24.449 54.5442 23.2726 56.0862 23.2726C57.0235 23.2726 57.8359 23.7139 58.4819 24.701L60.7321 23.3986C59.9818 21.7807 58.357 20.7936 56.1076 20.7936C53.17 20.7936 50.6708 22.9788 50.6708 26.298C50.6708 29.6179 53.0458 31.8031 56.1076 31.8031C58.3156 31.8031 59.7948 30.7944 60.8363 29.0088L58.6697 27.8114C58.0443 28.6927 57.3776 29.3234 56.0862 29.3234ZM84.0342 26.9914C83.9093 28.5883 83.5959 28.9454 83.0548 28.9454C82.685 28.9454 82.5108 28.9044 82.2574 28.8374L82.2703 31.5338C82.2703 31.5338 82.5965 31.6346 83.2004 31.6346C85.4291 31.6346 86.2629 30.1846 86.4714 27.0965L86.7212 23.4612H89.6788V31.4878H92.3037V21.0866H84.4711L84.0342 26.9914ZM79.1928 24.9106C78.9429 23.6081 77.9642 22.8096 76.5057 22.8096C75.1308 22.8096 74.0893 23.7341 73.7138 24.9106H79.1928ZM76.5886 20.7929C79.5468 20.7929 81.6299 22.9572 81.6299 26.0035V26.928H73.6717C73.838 28.525 74.9631 29.533 76.505 29.533C77.9007 29.533 78.4839 28.9238 79.1299 28.1045L81.213 29.155C80.1715 30.9406 78.7337 31.8024 76.4629 31.8024C73.5882 31.8024 71.151 29.5963 71.151 26.2973C71.1517 22.999 73.5896 20.7929 76.5886 20.7929ZM101.815 24.9106C101.565 23.6081 100.585 22.8096 99.1276 22.8096C97.7527 22.8096 96.7112 23.7341 96.3357 24.9106H101.815ZM99.2111 20.7929C102.169 20.7929 104.252 22.9572 104.252 26.0035V26.928H96.2943C96.4606 28.525 97.5856 29.533 99.1276 29.533C100.523 29.533 101.106 28.9238 101.753 28.1045L103.836 29.155C102.794 30.9406 101.356 31.8024 99.0855 31.8024C96.2107 31.8024 93.7736 29.5963 93.7736 26.2973C93.7736 22.999 96.2107 20.7929 99.2111 20.7929ZM61.6522 23.3978H64.7355V31.5079H67.3604V23.3978H70.4436V21.0866H61.6522V23.3978ZM120.622 29.3234C122.164 29.3234 123.601 28.2103 123.601 26.298C123.601 24.3857 122.164 23.2726 120.622 23.2726C119.081 23.2726 117.643 24.3864 117.643 26.298C117.643 28.2096 119.08 29.3234 120.622 29.3234ZM120.622 20.7929C123.456 20.7929 126.268 22.6418 126.268 26.298C126.268 29.9542 123.456 31.8031 120.622 31.8031C117.789 31.8031 114.977 29.9542 114.977 26.298C114.977 22.6418 117.789 20.7929 120.622 20.7929ZM136.711 21.0852L133.862 28.3838L131.013 21.0852H127.582V31.4878H130.077V24.9019L132.843 31.4878H134.88L137.646 24.9019V31.4878H140.141V21.0852H136.711Z" fill="#101828"/>
<path d="M17.04 36H2.47635C1.4241 36 0.805176 35.0517 0.805176 34.223C0.805176 33.7327 1.0022 33.2885 1.3213 32.9666L7.6769 26.5565L17.04 36Z" fill="#FF4F12"/>
<path d="M2.47687 36C1.3768 36 0.00259503 35.113 0.00259503 33.3497V13.6022C0.00259503 10.9339 -0.132326 9.05688 1.75729 7.15104L8.84674 0L21.4187 12.7001L1.32183 32.9666C1.00273 33.2885 0.8057 33.732 0.8057 34.223C0.8057 35.0518 1.42463 36 2.47687 36Z" fill="#7700FF"/>
</g>
<defs>
<clipPath id="clip0_47_10656">
<rect width="140.143" height="36" fill="white"/>
</clipPath>
</defs>
</svg>
