<svg width="24" height="24" viewBox="0 0 24 24" fill="none" xmlns="http://www.w3.org/2000/svg">
<path fill-rule="evenodd" clip-rule="evenodd" d="M13.5417 5.51767L10.5139 8.54538L9.45318 7.48474L12.481 4.45703C14.4313 2.50684 17.5933 2.50684 19.5436 4.45702C21.4938 6.40721 21.4938 9.56909 19.5436 11.5193L16.5157 14.547L15.455 13.4864L18.4829 10.4586C19.8473 9.09422 19.8473 6.88207 18.4829 5.51766C17.1184 4.15325 14.9062 4.15325 13.5417 5.51767ZM7.48447 9.45337L8.54516 10.514L5.51691 13.5421C4.15244 14.9065 4.15244 17.1187 5.51691 18.4831C6.88138 19.8475 9.09362 19.8475 10.4581 18.4831L13.4863 15.455L14.547 16.5156L11.5188 19.5437C9.5685 21.4939 6.4065 21.4939 4.45623 19.5437C2.50596 17.5936 2.50596 14.4317 4.45623 12.4815L7.48447 9.45337ZM14.9696 7.96969L7.96964 14.9697L9.0303 16.0304L16.0303 9.03035L14.9696 7.96969Z" fill="#101828"/>
</svg>
